<svg xmlns:dc="http://purl.org/dc/elements/1.1/" xmlns:cc="http://creativecommons.org/ns#" xmlns:rdf="http://www.w3.org/1999/02/22-rdf-syntax-ns#" xmlns:svg="http://www.w3.org/2000/svg" xmlns="http://www.w3.org/2000/svg" xmlns:sodipodi="http://sodipodi.sourceforge.net/DTD/sodipodi-0.dtd" xmlns:inkscape="http://www.inkscape.org/namespaces/inkscape" version="1.1" x="0px" y="0px" viewBox="0 0 100 100"><g transform="translate(0,-952.36218)"><path d="m 55.93399,970.70706 a 1.0001,1.0001 0 0 0 -0.094,0.031 l -0.094,0 -22.7813,0 c -2.2009,0 -4.0313,1.7868 -4.0313,4 l 0,48.43764 c 0,2.2146 1.8312,4 4.0313,4 l 2.7813,0 0,0.5624 c 0,1.6415 1.3272,3 2.9687,3 l 36.4687,0 c 1.6415,0 3,-1.3585 3,-3 l 0,-13.2812 c 0,-1.6415 -1.3585,-3 -3,-3 l -3.4062,0 0,-25.71884 a 1.0001,1.0001 0 0 0 -0.3125,-0.75 l -14.5937,-14 a 1.0001,1.0001 0 0 0 -0.6876,-0.25 l -0.062,0 a 1.0001,1.0001 0 0 0 -0.1876,-0.031 z m -22.9687,2.0312 22,0 0,9.9688 c 0,2.2116 1.8208,4.0312 4.0313,4.0312 l 10.7812,0 0,24.71884 -31.0625,0 c -0.8291,0 -1.5555,0.3517 -2.0937,0.9062 -0.1278,0.1317 -0.2728,0.2843 -0.375,0.4376 0,0.01 0,0.025 0,0.031 -0.1003,0.1531 -0.2098,0.2982 -0.2813,0.4688 0,0.01 0,0.023 0,0.031 -0.069,0.1707 -0.1188,0.347 -0.1563,0.5312 0,0.01 0,0.021 0,0.031 -0.035,0.1848 -0.062,0.368 -0.062,0.5625 -2e-4,0.011 0,0.021 0,0.031 l 0,10.6876 -2.7813,0 c -1.1399,0 -2.0313,-0.8708 -2.0313,-2 l 0,-48.43764 c 0,-1.1266 0.8922,-2 2.0313,-2 z m 24,1.3438 11.125,10.6562 -9.0937,0 c -1.1296,0 -2.0313,-0.9008 -2.0313,-2.0312 l 0,-8.625 z m -16.9063,13.7812 c -2.1791,0 -3.9687,1.7897 -3.9687,3.9688 0,2.1794 1.7895,3.9688 3.9687,3.9688 2.1793,0 3.9688,-1.7894 3.9688,-3.9688 0,-2.1792 -1.7895,-3.9688 -3.9688,-3.9688 z m 0,2 c 1.0984,0 1.9688,0.8706 1.9688,1.9688 0,1.0985 -0.8704,1.9688 -1.9688,1.9688 -1.0982,0 -1.9687,-0.8703 -1.9687,-1.9688 0,-1.0983 0.8704,-1.9688 1.9687,-1.9688 z m 5.9688,6.5 a 1.0001,1.0001 0 0 0 -0.5625,0.375 l -9.6563,11.65634 a 1.0103772,1.0103772 0 0 0 1.5626,1.2813 l 8.875,-10.7188 8.8437,10.75 a 1.0103068,1.0103068 0 0 0 1.5625,-1.2812 l -1.75,-2.1563 3.0625,-3.25 5.4063,6.6563 a 1.0004491,1.0004491 0 1 0 1.5624,-1.25 l -6.125,-7.5626 a 1.0001,1.0001 0 0 0 -0.875,-0.375 1.0001,1.0001 0 0 0 -0.625,0.3126 l -3.7187,3.9062 -6.5625,-7.96884 a 1.0001,1.0001 0 0 0 -0.8125,-0.375 1.0001,1.0001 0 0 0 -0.094,0 1.0001,1.0001 0 0 0 -0.094,0 z m 24.9375,17.09384 0.094,0 4.125,0 c 0.5682,0 1,0.4319 1,1 l 0,13.2812 c 0,0.568 -0.4318,1 -1,1 l -36.4687,0 c -0.5681,0 -0.9687,-0.432 -0.9687,-1 l 0,-1.4062 a 1.0001,1.0001 0 0 0 0,-0.1562 l 0,-11.6876 0,-0.031 c 0,-0.1431 0.013,-0.2881 0.062,-0.4062 0.043,-0.1124 0.1412,-0.1956 0.2188,-0.2813 0.1716,-0.1771 0.4052,-0.2813 0.6875,-0.2813 l 32.0625,0 a 1.0001,1.0001 0 0 0 0.1875,-0.031 z m -9.5313,3.7188 c -0.5053,0.048 -0.9428,0.1836 -1.3124,0.375 -0.6468,0.332 -1.1332,0.8152 -1.4688,1.4374 -0.3356,0.6223 -0.5,1.3245 -0.5,2.125 0,0.7375 0.1682,1.4351 0.4688,2.0626 0.3005,0.6275 0.746,1.1002 1.3437,1.4374 0.5978,0.3374 1.2899,0.5 2.0937,0.5 0.6328,0 1.258,-0.1042 1.875,-0.3437 0.6169,-0.2394 1.0812,-0.5292 1.4063,-0.8437 l 0,-3.0626 -3.3437,0 0,1.2813 1.7812,0 0,1 c -0.2342,0.1817 -0.517,0.3411 -0.8438,0.4687 -0.3267,0.1274 -0.6436,0.1876 -0.9687,0.1876 -0.6572,0 -1.1883,-0.2313 -1.5937,-0.6876 -0.4055,-0.456 -0.625,-1.1501 -0.625,-2.0624 0,-0.846 0.1934,-1.4763 0.5937,-1.9063 0.4002,-0.43 0.9469,-0.6563 1.625,-0.6563 0.4475,0 0.8261,0.1253 1.125,0.3438 0.2989,0.2185 0.5166,0.4975 0.625,0.875 l 1.5313,-0.2812 c -0.1539,-0.7061 -0.4948,-1.256 -1.0313,-1.6563 -0.5366,-0.4002 -1.2956,-0.5937 -2.25,-0.5937 -0.1835,0 -0.3628,-0.016 -0.5313,0 z m -13.375,0.125 0,4.9687 c 0,0.6222 -0.075,1.0213 -0.2187,1.2187 -0.1433,0.1974 -0.4039,0.3126 -0.75,0.3126 -0.3426,0 -0.5822,-0.1614 -0.75,-0.4376 -0.112,-0.1817 -0.1705,-0.4657 -0.1875,-0.9062 l -1.4688,0.1562 c 0,0.8216 0.2161,1.4503 0.625,1.875 0.409,0.4248 0.9914,0.625 1.75,0.625 0.6468,0 1.1675,-0.1353 1.5626,-0.4062 0.395,-0.2709 0.6621,-0.6151 0.8124,-1.0625 0.1119,-0.3426 0.1563,-0.8326 0.1563,-1.4687 l 0,-4.875 -1.5313,0 z m 3.1876,0 0,7.6874 1.5624,0 0,-2.9062 1,0 c 0.7026,0 1.2546,-0.021 1.625,-0.094 0.2728,-0.059 0.5174,-0.1914 0.7813,-0.375 0.2639,-0.1836 0.485,-0.4284 0.6563,-0.75 0.1709,-0.3215 0.2812,-0.7155 0.2812,-1.1874 0,-0.6118 -0.1716,-1.1138 -0.4688,-1.5 -0.2971,-0.3863 -0.6533,-0.6347 -1.0937,-0.75 -0.2867,-0.077 -0.8999,-0.125 -1.8437,-0.125 l -2.5,0 z m 1.5624,1.3124 0.75,0 c 0.5593,0 0.9397,0 1.125,0.031 0.2517,0.045 0.4295,0.1619 0.5938,0.3437 0.1644,0.1819 0.25,0.4079 0.25,0.6876 0,0.2272 -0.039,0.4224 -0.1562,0.5937 -0.1171,0.1712 -0.2938,0.295 -0.5,0.375 -0.2062,0.081 -0.6071,0.125 -1.2188,0.125 l -0.8438,0 0,-2.1563 z m -10.5312,4.9063 0,1.4687 1.4688,0 0,-1.4687 -1.4688,0 z" style="text-indent:0;text-transform:none;direction:ltr;block-progression:tb;baseline-shift:baseline;color:#000000;enable-background:accumulate;" fill="#000000" fill-opacity="1" stroke="none" marker="none" visibility="visible" display="inline" overflow="visible"></path></g></svg>