<?xml version="1.0" encoding="utf-8"?>
<!-- Generator: Adobe Illustrator 15.1.0, SVG Export Plug-In . SVG Version: 6.00 Build 0)  -->
<!DOCTYPE svg PUBLIC "-//W3C//DTD SVG 1.1//EN" "http://www.w3.org/Graphics/SVG/1.1/DTD/svg11.dtd">
<svg version="1.1"
	 id="Layer_1" xmlns:dc="http://purl.org/dc/elements/1.1/" xmlns:cc="http://creativecommons.org/ns#" xmlns:rdf="http://www.w3.org/1999/02/22-rdf-syntax-ns#" xmlns:sodipodi="http://sodipodi.sourceforge.net/DTD/sodipodi-0.dtd" xmlns:svg="http://www.w3.org/2000/svg" xmlns:inkscape="http://www.inkscape.org/namespaces/inkscape"
	 xmlns="http://www.w3.org/2000/svg" xmlns:xlink="http://www.w3.org/1999/xlink" x="0px" y="0px" width="450px" height="450px"
	 viewBox="0 0 450 450" enable-background="new 0 0 450 450" xml:space="preserve">
<path d="M251.703,82.552c-0.144,0.04-0.285,0.086-0.424,0.14h-0.422H148.341c-9.904,0-18.141,8.041-18.141,18V318.66
	c0,9.967,8.24,18,18.141,18h12.516v2.531c0,7.387,5.972,13.5,13.359,13.5h164.109c7.387,0,13.5-6.113,13.5-13.5v-59.766
	c0-7.387-6.113-13.5-13.5-13.5h-15.328V150.191c0.03-1.273-0.48-2.5-1.406-3.375l-65.671-63c-0.853-0.752-1.958-1.154-3.095-1.125
	h-0.278C252.27,82.618,251.987,82.571,251.703,82.552L251.703,82.552z M148.344,91.692h99v44.859c0,9.952,8.193,18.14,18.141,18.14
	H314v111.235H174.219c-3.731,0-7,1.583-9.421,4.077c-0.575,0.594-1.228,1.28-1.688,1.971c0,0.045,0,0.111,0,0.139
	c-0.452,0.689-0.944,1.342-1.266,2.109c0,0.045,0,0.104,0,0.141c-0.311,0.768-0.535,1.561-0.703,2.39c0,0.045,0,0.095,0,0.14
	c-0.158,0.832-0.279,1.656-0.279,2.531c-0.001,0.049,0,0.094,0,0.14v48.094h-12.516c-5.13,0-9.141-3.919-9.141-9V100.688
	c0-5.07,4.015-9,9.141-9L148.344,91.692z M256.344,97.739l50.063,47.953h-40.922c-5.083,0-9.141-4.053-9.141-9.14V97.739
	L256.344,97.739z M180.266,159.754c-9.806,0-17.859,8.054-17.859,17.86c0,9.807,8.053,17.86,17.859,17.86s17.859-8.053,17.859-17.86
	C198.125,167.808,190.072,159.754,180.266,159.754z M180.266,168.754c4.943,0,8.859,3.918,8.859,8.86c0,4.943-3.917,8.86-8.859,8.86
	c-4.942,0-8.859-3.917-8.859-8.86C171.406,172.672,175.323,168.754,180.266,168.754z M207.125,198.004
	c-1.014,0.252-1.909,0.848-2.531,1.688l-43.453,52.454c-1.592,1.942-1.309,4.807,0.633,6.399c1.942,1.592,4.807,1.309,6.399-0.633
	l0,0l39.938-48.235l39.796,48.375c1.598,1.938,4.463,2.214,6.4,0.616c1.93-1.592,2.212-4.443,0.631-6.381l-7.875-9.704
	l13.781-14.625l24.328,29.954c1.554,1.941,4.387,2.256,6.328,0.702s2.256-4.386,0.703-6.327l0,0l-27.563-34.033
	c-0.943-1.191-2.424-1.826-3.938-1.688c-1.076,0.116-2.074,0.615-2.813,1.407l-16.734,17.578l-29.531-35.86
	c-0.885-1.106-2.24-1.732-3.656-1.688c-0.141-0.006-0.282-0.006-0.423,0c-0.141-0.006-0.282-0.006-0.423,0H207.125z
	 M319.344,274.927h0.423h18.563c2.557,0,4.5,1.943,4.5,4.5v59.766c0,2.556-1.943,4.5-4.5,4.5H174.22c-2.557,0-4.359-1.944-4.359-4.5
	v-6.328c0.019-0.233,0.019-0.47,0-0.703v-52.595v-0.139c0-0.645,0.059-1.297,0.279-1.828c0.193-0.506,0.635-0.881,0.984-1.266
	c0.772-0.797,1.824-1.266,3.094-1.266H318.5C318.784,275.049,319.067,275.001,319.344,274.927L319.344,274.927z"/>
<g>
	<path d="M208.451,323.415c0-2.669,1.857-4.584,4.41-4.584c2.611,0,4.41,1.856,4.41,4.584c0,2.611-1.741,4.585-4.468,4.585
		C210.25,328,208.451,326.026,208.451,323.415z"/>
	<path d="M220.696,323.415l19.962-29.072v-0.174h-18.222v-5.919h27.506v4.178l-19.729,28.841v0.174h20.02v5.919h-29.537V323.415z"/>
	<path d="M263.292,288.25v39.111h-7.138V288.25H263.292z"/>
	<path d="M271.475,288.25h22.631v5.86h-15.493v10.794h14.391v5.803h-14.391v16.654h-7.138V288.25z"/>
</g>
</svg>
